# xmcd
#
# Track frame offsets:
# 150
# 11925
# 25725
# 39975
# 50702
# 61952
# 74255
# 85805
# 102232
# 113407
#
# Disc length: 1651 seconds
#
#
# Revision: 2
# Processed by: cddbd v1.4PL0 Copyright (c) Steve Scherf et al.
# Submitted via: FreeRIP 2.21 
#
DISCID=7b06710a
DTITLE=Banda Maguey - Tu Eterno Enamorado
DYEAR=1996
DGENRE=other
TTITLE0=Baila Nena
TTITLE1=Llorar Por Ti
TTITLE2=Ni o Travieso
TTITLE3=Por Segunda Vez
TTITLE4=Porque Es Amor
TTITLE5=El Zancudito
TTITLE6=La Mano De Dios
TTITLE7=Tu Eterno Enamorado
TTITLE8=La Morena
TTITLE9=Mujer Paseada
EXTD=
EXTT0=
EXTT1=
EXTT2=
EXTT3=
EXTT4=
EXTT5=
EXTT6=
EXTT7=
EXTT8=
EXTT9=
PLAYORDER=
